<svg width="24" height="24" viewBox="0 0 24 24" xmlns="http://www.w3.org/2000/svg" fill="#3B99FC">
    <path d="M6.098 3.732a10.047 10.047 0 0111.804 0 1.005 1.005 0 001.422-1.422A12.057 12.057 0 0012 1.25a12.057 12.057 0 00-7.324 1.06 1.005 1.005 0 101.422 1.422zM3.732 6.098a10.047 10.047 0 010 11.804 1.005 1.005 0 101.422-1.422 8.038 8.038 0 000-8.96A1.005 1.005 0 003.732 6.098zM20.268 6.098a1.005 1.005 0 00-1.422 1.422 8.038 8.038 0 010 8.96 1.005 1.005 0 001.422 1.422 10.047 10.047 0 000-11.804zM17.902 20.268a10.047 10.047 0 01-11.804 0 1.005 1.005 0 10-1.422 1.422A12.057 12.057 0 0012 22.75a12.057 12.057 0 007.324-1.06 1.005 1.005 0 00-1.422-1.422zM12 6.025a5.975 5.975 0 100 11.95 5.975 5.975 0 000-11.95zm0 2.01a3.965 3.965 0 110 7.93 3.965 3.965 0 010-7.93z"/>
</svg>
